<?xml version="1.0" encoding="utf-8"?>
<svg id="master-artboard" viewBox="0 0 360 133" version="1.1" xmlns="http://www.w3.org/2000/svg" x="0px" y="0px" style="enable-background:new 0 0 336 235.2;" width="360px" height="133px"><rect id="ee-background" x="0" y="0" width="360" height="133" style="fill: white; fill-opacity: 0; pointer-events: none;"/><g transform="matrix(0.9940474629402161, 0, 0, 0.9940474629402161, 2.508272583633385, 0.5696913814048798)"><desc>Created with Fabric.js 3.6.6</desc><g transform="matrix(1 0 0 1 180 67)">
<g style="">
		<g transform="matrix(0.7 0 0 0.7 -0.06 0)">
<path style="stroke: none; stroke-width: 1; stroke-dasharray: none; stroke-linecap: butt; stroke-dashoffset: 0; stroke-linejoin: round; stroke-miterlimit: 1.41421; fill: rgb(238,50,41); fill-rule: nonzero; opacity: 1;" transform=" translate(-289.85, -299.88)" d="m 385.268 299.883 c 0 52.694 -42.724 95.414 -95.418 95.414 c -29.489 0 -55.85 -13.383 -73.347 -34.397 c 12.988 1.604 31.527 0.083 57.902 -7.926 c 38.845 -11.798 71.771 -40.266 90.869 -65.579 c -0.281 -1.923 -0.621 -3.822 -1.037 -5.711 c -21.932 22.233 -55.913 45.585 -89.964 54.042 c -55.288 13.748 -71.64 -2.583 -76.025 -9.968 l -0.524 -1.014 c -2.135 -7.933 -3.295 -16.262 -3.295 -24.861 c 0 -52.701 42.72 -95.421 95.421 -95.421 c 52.694 0 95.418 42.72 95.418 95.421" stroke-linecap="round"/>
</g>
		<g transform="matrix(0.7 0 0 0.7 114.78 0)">
<path style="stroke: none; stroke-width: 1; stroke-dasharray: none; stroke-linecap: butt; stroke-dashoffset: 0; stroke-linejoin: round; stroke-miterlimit: 1.41421; fill: rgb(96,102,108); fill-rule: nonzero; opacity: 1;" transform=" translate(-454.81, -299.88)" d="m 479.002 210.298 l -40.359 66.755 v -66.755 h -77.521 c 26.333 20.98 43.229 53.298 43.229 89.585 c 0 36.283 -16.896 68.599 -43.227 89.578 h 77.819 l 109.555 -179.163 z" stroke-linecap="round"/>
</g>
		<g transform="matrix(0.7 0 0 0.7 -114.83 0)">
<path style="stroke: none; stroke-width: 1; stroke-dasharray: none; stroke-linecap: butt; stroke-dashoffset: 0; stroke-linejoin: round; stroke-miterlimit: 1.41421; fill: rgb(96,102,108); fill-rule: nonzero; opacity: 1;" transform=" translate(-124.97, -299.88)" d="m 218.579 389.461 h -78.108 l -40.362 -66.755 v 66.755 h -68.749 v -179.163 h 69.334 l 40.363 66.755 v -66.755 h 77.524 c -26.333 20.98 -43.23 53.298 -43.23 89.585 c 0.001 36.283 16.895 68.598 43.228 89.578" stroke-linecap="round"/>
</g>
</g>
</g></g></svg>